<mxfile host="app.diagrams.net" modified="2024-07-18T19:58:09.637Z" agent="Mozilla/5.0 (Windows NT 10.0; Win64; x64) AppleWebKit/537.36 (KHTML, like Gecko) Chrome/123.0.0.0 Safari/537.36 OPR/109.0.0.0 (Edition Yx GX)" version="24.7.1" etag="0d4JBmiua2CyRcJ5vYkh" type="github">
  <diagram name="Страница — 1" id="ReMtUYcP01ZTisg15eos">
    <mxGraphModel>
      <root>
        <mxCell id="0" />
        <mxCell id="1" parent="0" />
      </root>
    </mxGraphModel>
  </diagram>
</mxfile>
